<svg width="40" height="40" viewBox="0 0 40 40" fill="none" xmlns="http://www.w3.org/2000/svg">
<g clip-path="url(#clip0_7_2098)">
<path d="M25.9219 25.1599C26.0907 25.16 26.2575 25.2022 26.4053 25.2839C29.6748 27.0912 31.4765 29.2952 32.0391 31.5632C32.6042 33.8425 31.8677 35.994 30.458 37.5456C27.6458 40.6408 22.0646 41.4574 18.1436 36.7487C17.7902 36.3243 17.848 35.693 18.2725 35.3396C18.6968 34.9865 19.3273 35.0443 19.6807 35.4685C22.7687 39.1768 26.9235 38.4627 28.9785 36.2009C30.0018 35.0744 30.4819 33.5909 30.0986 32.0446C29.7217 30.5251 28.4612 28.7639 25.6543 27.1599H1C0.44799 27.1599 0.00044471 26.7118 0 26.1599C0 25.6076 0.447715 25.1599 1 25.1599H25.9219ZM25.9316 10.1169C29.8527 5.40803 35.4338 6.22483 38.2461 9.32003C39.6557 10.8717 40.3924 13.0231 39.8271 15.3025C39.2646 17.5705 37.463 19.7744 34.1934 21.5818C34.0456 21.6634 33.8788 21.7056 33.71 21.7058H1C0.447732 21.7058 2.72989e-05 21.258 0 20.7058C0.000252962 20.1537 0.447871 19.7058 1 19.7058H33.4424C36.2494 18.1017 37.5098 16.3406 37.8867 14.821C38.2701 13.2745 37.7891 11.7914 36.7656 10.6648C34.7105 8.40295 30.5568 7.68856 27.4688 11.3972C27.1155 11.8213 26.4849 11.8789 26.0605 11.5261C25.6361 11.1727 25.5783 10.5413 25.9316 10.1169ZM7.24023 3.32492C11.1613 -1.38383 16.7424 -0.567141 19.5547 2.52804C20.9644 4.07961 21.7017 6.23117 21.1367 8.51046C20.5742 10.7784 18.7714 12.9824 15.502 14.7898C15.3541 14.8714 15.1874 14.9137 15.0186 14.9138H1C0.447715 14.9138 0 14.4661 0 13.9138C0.000446498 13.3619 0.447991 12.9138 1 12.9138H14.751C17.558 11.3098 18.8184 9.54857 19.1953 8.02902C19.5786 6.48269 19.0986 4.9993 18.0752 3.87277C16.0201 1.61098 11.8654 0.896818 8.77734 4.60519C8.42398 5.0293 7.79348 5.0872 7.36914 4.7341C6.94472 4.38071 6.88685 3.74934 7.24023 3.32492Z" fill="white"/>
</g>
<defs>
<clipPath id="clip0_7_2098">
<rect width="40" height="40" fill="white"/>
</clipPath>
</defs>
</svg>
