<svg width="40" height="40" viewBox="0 0 40 40" fill="none" xmlns="http://www.w3.org/2000/svg">
<path d="M36.0186 0.00390625C37.6037 0.0842453 38.8643 1.39492 38.8643 3V37L38.8604 37.1543C38.7826 38.6883 37.5526 39.9183 36.0186 39.9961L35.8643 40H7.9248C6.26795 40 4.9248 38.6569 4.9248 37V32.5156H2.5C1.94772 32.5156 1.5 32.0679 1.5 31.5156C1.5 30.9633 1.94772 30.5156 2.5 30.5156H4.9248V20.3936H2.5C1.94772 20.3936 1.5 19.9458 1.5 19.3936C1.5 18.8413 1.94772 18.3936 2.5 18.3936H4.9248V9.48438H2.5C1.94772 9.48438 1.5 9.03666 1.5 8.48438C1.5 7.93209 1.94772 7.48438 2.5 7.48438H4.9248V3C4.9248 1.34315 6.26795 1.09476e-07 7.9248 0H35.8643L36.0186 0.00390625ZM7.9248 2C7.37252 2 6.9248 2.44772 6.9248 3V7.48438H8.56055C9.11283 7.48438 9.56055 7.93209 9.56055 8.48438C9.56055 9.03666 9.11283 9.48438 8.56055 9.48438H6.9248V18.3936H8.56055C9.11283 18.3936 9.56055 18.8413 9.56055 19.3936C9.56055 19.9458 9.11283 20.3936 8.56055 20.3936H6.9248V30.5156H8.56055C9.11283 30.5156 9.56055 30.9633 9.56055 31.5156C9.56055 32.0679 9.11283 32.5156 8.56055 32.5156H6.9248V37C6.9248 37.5523 7.37252 38 7.9248 38H11.8037V2H7.9248ZM13.8037 38H35.8643C36.4165 38 36.8643 37.5523 36.8643 37V3C36.8643 2.44774 36.4165 2.00003 35.8643 2H13.8037V38ZM32.8027 12.333C33.355 12.333 33.8027 12.7807 33.8027 13.333C33.8027 13.8853 33.355 14.333 32.8027 14.333H20.6816C20.1294 14.333 19.6816 13.8853 19.6816 13.333C19.6816 12.7807 20.1294 12.333 20.6816 12.333H32.8027ZM32.8027 6.27246C33.355 6.27246 33.8027 6.72018 33.8027 7.27246C33.8027 7.82475 33.355 8.27246 32.8027 8.27246H20.6816C20.1294 8.27246 19.6816 7.82475 19.6816 7.27246C19.6816 6.72018 20.1294 6.27246 20.6816 6.27246H32.8027Z" fill="white"/>
</svg>
