<svg width="220" height="220" viewBox="0 0 220 220" fill="none" xmlns="http://www.w3.org/2000/svg">
<path d="M64.2323 42.9076C66.9747 42.3591 69.1325 43.164 70.6493 44.4115C72.1363 45.6347 73.0159 47.2888 73.2597 48.5072L73.2616 48.515L73.6259 50.4369C74.5481 48.9364 76.2157 47.34 79.246 46.6664C81.3425 46.2005 83.1045 46.7297 84.4149 47.5453C85.5433 48.2477 86.3578 49.1733 86.7977 49.8969L86.9628 50.1937L87.0048 50.2943C87.0163 50.329 87.0257 50.3647 87.0321 50.4008L95.289 96.9955L100.605 81.5805L100.665 81.4486C100.689 81.4069 100.718 81.367 100.75 81.3305C101.532 80.4363 102.87 79.2592 104.538 78.5512C106.225 77.8353 108.287 77.589 110.411 78.6508C112.421 79.6555 113.435 81.1893 113.871 82.683C114.296 84.1405 114.169 85.548 113.93 86.3978L113.931 86.3988L113.143 89.348C115.708 89.9876 117.623 92.0149 118.529 93.3266C118.557 93.3664 118.58 93.4093 118.6 93.4535L118.644 93.5912L122.171 109.511L135.68 64.1605C135.69 64.1256 135.703 64.091 135.719 64.058L135.772 63.9623L135.97 63.6859C136.489 63.0171 137.404 62.1909 138.605 61.6215C140 60.9604 141.811 60.6356 143.841 61.3373C146.775 62.3516 148.25 64.1273 148.995 65.723L149.575 63.8549L149.578 63.8471C149.959 62.6644 151.022 61.1214 152.639 60.0756C154.288 59.009 156.523 58.4548 159.184 59.3119C161.796 60.1528 163.153 61.5851 163.755 63.1234C164.34 64.6217 164.161 66.1019 163.944 66.9955C163.941 67.009 163.938 67.0232 163.933 67.0365L162.686 71.1391C163.126 70.8373 163.612 70.5526 164.136 70.3109C165.762 69.56 167.797 69.1966 169.962 70.0092C172.153 70.8316 173.284 72.4655 173.797 74.0863C174.3 75.6777 174.224 77.2896 173.996 78.2269C173.989 78.256 173.98 78.2849 173.97 78.3129C173.186 80.3999 172.218 83.1662 171.403 85.3324C171.672 85.1971 171.954 85.0769 172.252 84.9799C173.619 84.534 175.221 84.559 177.052 85.3168C178.864 86.0668 179.908 87.0728 180.412 88.2426C180.905 89.3878 180.823 90.5649 180.656 91.5385C179.38 98.9906 174.93 117.228 167.302 130.581C159.763 143.777 155.333 154.722 154.066 158.521V158.522L148.197 176.748C148.072 177.136 147.66 177.353 147.269 177.237L105.843 164.93C105.647 164.872 105.484 164.735 105.391 164.554C105.297 164.373 105.281 164.16 105.347 163.967L111.922 144.74L107.095 112.03L101.459 133.162L105.802 153.013C105.845 153.213 105.805 153.422 105.691 153.591C105.578 153.761 105.4 153.877 105.199 153.912L62.6405 161.422C62.2394 161.493 61.8543 161.231 61.7743 160.831L58.0194 142.055V142.054C57.1935 138.136 54.0385 126.758 48.0517 112.788C41.9938 98.6535 39.6498 80.0279 39.2304 72.4789C39.1755 71.4926 39.2281 70.3135 39.8485 69.2318C40.4824 68.1271 41.6349 67.2472 43.5204 66.7084C45.4256 66.1641 47.02 66.3218 48.327 66.9203C48.6114 67.0506 48.8783 67.2017 49.1298 67.3666C48.567 65.1217 47.9204 62.2636 47.3798 60.101C47.3725 60.0718 47.3669 60.0419 47.3632 60.0121C47.2436 59.0549 47.3515 57.445 48.0331 55.9213C48.7274 54.3696 50.0364 52.8757 52.3065 52.308C54.5505 51.747 56.5313 52.3396 58.0614 53.2709C58.5536 53.5705 59.0034 53.9083 59.4061 54.2582L58.6347 50.0404C58.6321 50.0266 58.6305 50.0124 58.6288 49.9984C58.5148 49.0859 58.5053 47.595 59.2577 46.1732C60.0303 44.7135 61.5426 43.4457 64.2323 42.9076ZM107.02 163.714L146.994 175.59L152.411 158.77L113.16 145.757L107.02 163.714ZM59.6356 142.49L63.1015 159.818L104.168 152.571L100.113 134.032L59.6356 142.49ZM158.724 60.7406C156.526 60.0333 154.756 60.4919 153.452 61.3353C152.2 62.1457 151.385 63.3088 151.064 64.1449L151.006 64.307L149.684 68.558L140.035 99.5795C139.912 99.9748 139.491 100.196 139.096 100.073C138.7 99.9496 138.48 99.5295 138.602 99.1342L148.202 68.2738C148.003 66.8748 147.191 64.0818 143.35 62.7543C141.753 62.2022 140.351 62.454 139.248 62.9769C138.184 63.4812 137.425 64.2283 137.083 64.7074L122.781 112.712C122.683 113.04 122.377 113.26 122.036 113.247C121.695 113.235 121.405 112.993 121.331 112.66L117.214 94.0648C116.385 92.9086 114.83 91.3633 112.902 90.8344L109.794 101.909L108.07 108.369L113.366 144.245L152.886 157.347C154.443 152.936 158.83 142.386 165.999 129.837C173.502 116.703 177.915 98.6614 179.179 91.2855C179.329 90.4053 179.355 89.5786 179.035 88.8353C178.725 88.1164 178.033 87.3465 176.477 86.7025C174.941 86.0667 173.709 86.0824 172.718 86.4057C171.754 86.7201 170.951 87.35 170.292 88.099L162.801 109.772C162.665 110.163 162.237 110.371 161.846 110.236C161.455 110.1 161.248 109.674 161.383 109.283L168.923 87.4682L168.953 87.3939L169.116 87.0316C169.968 85.08 171.395 80.9088 172.545 77.8412C172.709 77.1362 172.773 75.825 172.366 74.5385C171.962 73.2617 171.11 72.042 169.435 71.4135C167.736 70.7757 166.125 71.0442 164.765 71.6723C163.456 72.2769 162.42 73.2012 161.85 73.8842L152.112 104.121C151.985 104.516 151.562 104.733 151.168 104.606C150.774 104.479 150.558 104.057 150.684 103.662L160.463 73.2973L160.462 73.2963L162.49 66.6254C162.668 65.8846 162.784 64.7597 162.358 63.6703C161.945 62.6127 160.972 61.4648 158.724 60.7406ZM69.6972 45.5707C68.4978 44.5842 66.7911 43.9266 64.5272 44.3793C62.2108 44.8427 61.1141 45.8718 60.5829 46.8754C60.036 47.9093 60.0228 49.04 60.1151 49.7963L61.371 56.6557H61.37L67.6268 87.9369C67.708 88.343 67.445 88.7384 67.039 88.8197C66.6329 88.9007 66.2374 88.6369 66.1561 88.2309L59.9257 57.0814C59.4364 56.3379 58.5128 55.3019 57.2811 54.5521C56.0013 53.7732 54.4308 53.3228 52.6698 53.7631C50.9352 54.197 49.9491 55.3112 49.4022 56.5336C48.8512 57.7653 48.7659 59.0753 48.8485 59.7943C49.6416 62.9731 50.5847 67.2799 51.2089 69.3158L51.33 69.6937L51.3515 69.7709L56.3583 92.3021C56.4481 92.7064 56.1932 93.1067 55.789 93.1967C55.3847 93.2863 54.9833 93.0315 54.8934 92.6273L49.9188 70.2426C49.3492 69.4233 48.6239 68.7058 47.702 68.2836C46.7541 67.8496 45.5314 67.694 43.9325 68.1508C42.3137 68.6134 41.5389 69.2989 41.1493 69.9779C40.7467 70.6798 40.6778 71.5042 40.7274 72.3959C41.1425 79.8677 43.4719 98.2941 49.4306 112.198C55.1234 125.481 58.2814 136.462 59.3261 141.022L100.081 132.505L106.541 108.281L106.532 108.217C106.517 108.113 106.524 108.006 106.553 107.905L108.342 101.528L112.48 86.0121L112.484 85.9994L112.546 85.7475C112.68 85.1065 112.728 84.1184 112.432 83.1029C112.101 81.9708 111.342 80.792 109.741 79.9916C108.102 79.1722 106.512 79.343 105.124 79.932C103.78 80.5026 102.66 81.4567 101.972 82.2162L95.7645 100.219C95.6531 100.542 95.3375 100.749 94.997 100.722C94.6566 100.695 94.377 100.442 94.3173 100.106L85.5761 50.7846C85.2903 50.2695 84.6212 49.4408 83.622 48.8187C82.5854 48.1736 81.2211 47.7636 79.5712 48.1303C75.6049 49.012 74.4797 51.6948 74.1229 53.0619L80.1454 84.8139C80.2226 85.2208 79.9556 85.6136 79.5487 85.6908C79.142 85.7677 78.7491 85.5007 78.6718 85.0941L72.6181 53.1752L71.789 48.8012L71.7499 48.6332C71.5266 47.766 70.8491 46.5184 69.6972 45.5707Z" fill="white"/>
</svg>
